<?xml version="1.0" standalone="no"?>
<!DOCTYPE svg PUBLIC "-//W3C//DTD SVG 20010904//EN"
 "http://www.w3.org/TR/2001/REC-SVG-20010904/DTD/svg10.dtd">
<svg version="1.0" xmlns="http://www.w3.org/2000/svg"
 width="547.000000pt" height="297.000000pt" viewBox="0 0 547.000000 297.000000"
 preserveAspectRatio="xMidYMid meet">
<g transform="translate(0.000000,297.000000) scale(0.100000,-0.100000)"
fill="#000000" stroke="none">
<path d="M3048 2643 c7 -3 16 -2 19 1 4 3 -2 6 -13 5 -11 0 -14 -3 -6 -6z"/>
<path d="M2825 2589 c-89 -13 -107 -16 -140 -24 -51 -12 -120 -38 -127 -49 -4
-6 -8 -8 -8 -4 0 9 -71 -26 -112 -54 -16 -11 -28 -16 -28 -12 0 4 -8 -3 -19
-14 -10 -12 -23 -22 -29 -22 -5 0 -13 -7 -16 -16 -4 -9 -9 -14 -12 -11 -3 3
-20 -8 -36 -24 -17 -16 -37 -29 -45 -29 -9 0 -13 -8 -11 -22 4 -28 20 -28 33
1 5 12 18 24 27 27 10 3 18 10 18 15 0 5 9 9 20 9 11 0 29 14 42 30 18 24 28
29 52 26 17 -2 23 -1 14 1 -10 2 -18 7 -17 11 0 4 42 27 92 51 51 24 100 48
109 53 10 4 35 8 56 8 21 0 43 5 49 11 5 5 29 10 52 11 23 0 44 4 47 9 3 5 20
9 37 9 25 0 29 -3 17 -11 -11 -8 -6 -9 20 -5 58 9 146 10 161 0 8 -4 26 -7 40
-6 15 2 33 -4 42 -12 9 -9 28 -16 43 -16 43 0 107 -22 92 -32 -8 -4 0 -5 18
-2 25 5 36 1 57 -20 14 -14 31 -26 37 -26 6 0 13 -7 17 -16 3 -8 12 -13 20
-10 11 5 13 0 8 -17 -6 -18 -5 -20 6 -9 18 17 26 15 32 -8 3 -11 13 -23 24
-27 10 -4 26 -16 36 -27 10 -12 22 -21 25 -21 10 0 92 -84 92 -94 0 -5 11 -16
25 -25 14 -9 23 -22 19 -28 -4 -7 -3 -8 4 -4 8 5 12 0 12 -13 0 -11 8 -25 18
-30 21 -11 104 -154 108 -185 1 -11 3 -30 4 -41 1 -19 2 -19 9 -1 6 15 9 11
19 -21 21 -70 18 -76 -58 -116 -39 -20 -77 -37 -84 -37 -7 0 -22 -9 -33 -19
-12 -11 -23 -17 -26 -14 -3 3 -20 -2 -37 -10 -17 -9 -39 -14 -48 -11 -13 5
-14 4 -4 -4 10 -7 5 -11 -18 -16 -18 -3 -37 -3 -44 1 -7 4 -6 1 2 -9 10 -13 9
-16 -10 -21 -48 -11 -162 -58 -170 -70 -6 -9 -8 -9 -8 2 0 7 -6 11 -15 7 -17
-6 -17 -3 -17 109 1 68 0 69 -13 40 -8 -16 -12 -42 -9 -57 3 -17 1 -28 -5 -28
-6 0 -10 6 -8 13 1 7 -12 13 -34 15 -30 2 -37 -1 -42 -17 -5 -19 -1 -21 42
-21 l46 0 -3 -46 -4 -45 38 7 c22 4 42 12 46 18 4 6 8 8 8 4 0 -5 24 1 53 13
28 11 72 27 97 36 25 8 51 20 58 25 6 6 12 7 12 2 0 -5 4 -4 8 1 7 11 130 65
145 65 5 0 15 7 24 15 8 9 28 19 44 22 16 3 29 9 29 14 0 5 7 9 15 9 8 0 15 4
15 9 0 5 12 12 26 15 23 6 25 10 19 39 -19 86 -101 264 -127 275 -4 2 -8 10
-8 18 0 8 -4 14 -10 14 -5 0 -10 5 -10 11 0 6 -6 16 -12 24 -7 7 -24 28 -38
46 -36 48 -202 209 -215 209 -4 0 -13 6 -20 13 -34 29 -45 37 -45 31 0 -4 -8
2 -17 12 -35 38 -163 89 -213 86 -20 -1 -22 0 -10 8 11 7 6 10 -20 10 -19 0
-49 4 -65 9 -49 14 -215 20 -280 10z"/>
<path d="M2630 2510 c-18 -12 -2 -12 25 0 13 6 15 9 5 9 -8 0 -22 -4 -30 -9z"/>
<path d="M3200 2510 c0 -5 5 -10 11 -10 5 0 7 5 4 10 -3 6 -8 10 -11 10 -2 0
-4 -4 -4 -10z"/>
<path d="M2328 2483 c6 -2 18 -2 25 0 6 3 1 5 -13 5 -14 0 -19 -2 -12 -5z"/>
<path d="M2787 2428 c5 -9 -22 -12 -87 -10 -37 1 -40 0 -20 -7 24 -9 24 -9 -7
-10 -18 -1 -33 -5 -33 -11 0 -5 -8 -10 -19 -10 -29 0 -174 -78 -200 -108 -13
-15 -25 -25 -26 -22 -2 7 -65 -47 -65 -57 0 -4 -14 -19 -32 -33 -17 -13 -37
-40 -45 -58 -12 -28 -17 -32 -28 -22 -12 10 -15 9 -15 -8 0 -30 -10 -52 -24
-52 -7 0 -13 -6 -13 -14 0 -20 -24 -76 -33 -76 -4 0 -13 -22 -20 -50 -7 -27
-17 -50 -22 -50 -6 0 -8 -9 -5 -20 3 -11 1 -20 -5 -20 -6 0 -8 -11 -6 -25 3
-13 2 -22 -2 -20 -11 7 -18 -48 -10 -71 6 -15 9 -11 14 16 4 19 8 47 9 62 1
14 5 24 9 22 3 -2 14 20 24 48 9 29 20 55 24 58 3 3 17 32 31 65 13 33 32 67
41 76 10 9 18 20 18 25 0 5 18 29 40 53 22 24 40 46 40 50 0 11 138 131 151
131 5 0 16 8 26 18 10 10 43 28 73 41 30 13 70 30 89 37 85 37 354 44 431 12
19 -8 52 -18 73 -22 20 -4 37 -10 37 -15 0 -4 18 -13 40 -20 22 -6 40 -17 40
-23 0 -6 3 -8 7 -5 3 4 15 0 24 -9 10 -9 36 -18 56 -20 34 -2 36 -1 20 11 -11
8 -25 11 -33 8 -8 -3 -14 -1 -14 4 0 12 -184 105 -202 102 -7 -1 -20 0 -28 3
-8 3 -33 11 -55 19 -42 14 -277 20 -268 7z"/>
<path d="M2241 2394 c0 -11 3 -14 6 -6 3 7 2 16 -1 19 -3 4 -6 -2 -5 -13z"/>
<path d="M3660 2320 c0 -5 5 -10 10 -10 6 0 10 5 10 10 0 6 -4 10 -10 10 -5 0
-10 -4 -10 -10z"/>
<path d="M2724 2295 c-44 -11 -81 -22 -84 -26 -3 -3 -22 -12 -42 -18 -21 -7
-38 -17 -38 -22 0 -5 -5 -9 -10 -9 -15 0 -116 -66 -145 -93 -12 -12 -31 -29
-41 -38 -33 -27 -83 -87 -78 -92 3 -3 -6 -14 -20 -25 -15 -11 -26 -25 -26 -31
0 -6 -4 -11 -10 -11 -5 0 -12 -11 -16 -25 -3 -14 -10 -25 -15 -25 -5 0 -9 -7
-9 -15 0 -8 -4 -15 -9 -15 -9 0 -35 -58 -32 -72 0 -5 -3 -8 -8 -8 -5 0 -16
-20 -24 -44 -12 -35 -12 -44 -2 -40 7 3 17 20 24 37 l11 32 -5 -30 c-4 -25 -3
-27 6 -12 6 10 8 25 5 33 -3 9 5 30 18 47 13 18 27 42 31 55 7 24 20 29 29 10
3 -7 3 -2 0 12 -3 18 3 34 23 56 64 72 72 83 60 88 -7 4 2 4 18 1 17 -2 24 -2
18 1 -9 4 -6 15 10 37 12 18 27 35 32 39 6 4 19 13 29 20 10 7 31 23 45 34 14
12 36 24 49 28 12 4 22 12 22 18 0 5 7 7 16 4 8 -3 13 -2 10 3 -3 5 5 12 19
15 14 4 25 11 25 16 0 6 11 10 24 10 14 0 28 5 31 10 3 6 17 10 30 10 13 0 27
5 31 11 4 7 25 9 58 6 35 -4 44 -3 29 3 -35 14 -28 17 31 10 29 -3 64 -3 78 1
13 3 39 4 58 1 l35 -6 -30 -7 c-24 -5 -21 -7 20 -7 28 0 75 -5 105 -11 82 -17
268 -113 331 -171 30 -28 60 -50 67 -50 9 0 12 -6 8 -17 -4 -10 -4 -14 0 -10
9 9 76 -62 69 -73 -3 -4 2 -11 11 -14 12 -5 14 -1 9 17 -7 21 -6 21 11 -2 12
-17 14 -26 6 -29 -21 -7 -13 -17 13 -17 14 0 25 3 25 6 0 19 -143 169 -161
169 -6 0 -7 5 -4 10 3 6 0 10 -7 10 -7 0 -25 10 -40 23 -55 47 -64 53 -105 72
-24 11 -43 23 -43 28 0 4 -6 7 -13 7 -7 0 -31 9 -53 19 -21 10 -59 24 -84 31
-25 6 -53 16 -63 21 -26 14 -153 28 -223 26 -34 -1 -97 -11 -140 -22z"/>
<path d="M2083 2276 c1 -17 9 -31 17 -33 10 -3 11 -2 4 4 -7 4 -14 19 -17 33
-4 22 -5 21 -4 -4z"/>
<path d="M2180 2239 c-25 -28 -50 -56 -56 -63 -6 -7 -15 -22 -18 -34 -4 -12
-12 -22 -17 -22 -5 0 -9 -6 -9 -12 0 -7 -14 -33 -30 -58 -16 -25 -30 -53 -30
-62 0 -10 -4 -18 -10 -18 -5 0 -10 -9 -10 -20 0 -11 -5 -20 -11 -20 -5 0 -7
-5 -4 -10 4 -6 2 -16 -3 -23 -22 -27 -62 -228 -62 -310 l0 -83 -49 -29 c-47
-28 -61 -48 -61 -86 0 -57 354 -75 671 -34 102 13 198 27 215 31 16 5 37 7 47
5 17 -2 18 12 16 253 -1 141 -5 256 -10 256 -5 0 -9 -108 -9 -239 0 -265 3
-254 -67 -246 -31 4 -34 3 -13 -4 28 -10 22 -13 -30 -16 -19 -1 -73 -8 -120
-16 -47 -7 -146 -13 -220 -13 -86 0 -119 -3 -90 -7 26 -4 -17 -6 -100 -5 -125
1 -150 4 -175 20 l-30 19 20 -23 c11 -13 16 -21 10 -19 -83 39 -88 44 -72 73
17 29 29 36 52 30 16 -4 17 -3 5 5 -8 6 -10 11 -4 11 18 0 32 48 38 133 3 43
13 91 21 107 8 16 15 35 14 42 0 7 -4 4 -9 -7 -8 -18 -9 -17 -9 7 -1 21 3 26
15 21 13 -5 15 -2 9 16 -8 28 4 103 16 95 5 -3 9 1 9 8 0 17 55 130 61 124 2
-2 4 9 5 25 1 17 11 39 23 50 11 11 21 23 21 28 0 4 8 16 18 27 10 10 18 24
18 29 -1 6 9 14 22 20 12 5 22 15 22 22 0 7 9 21 20 30 20 17 27 43 13 43 -5
-1 -28 -23 -53 -51z"/>
<path d="M3360 2262 c0 -4 14 -16 30 -26 48 -27 210 -195 210 -216 0 -5 8 -10
17 -10 9 0 14 -3 10 -6 -7 -7 42 -83 67 -103 14 -12 16 -11 16 7 0 12 -9 23
-20 27 -14 4 -19 12 -16 23 3 9 1 24 -4 32 -6 10 -10 11 -10 3 0 -7 -5 -13
-10 -13 -6 0 -8 11 -4 25 5 21 3 25 -16 25 -13 0 -24 8 -27 20 -3 11 -9 20
-13 20 -4 0 -12 12 -19 27 -7 15 -21 33 -32 41 -11 7 -17 17 -15 21 3 4 0 13
-6 21 -8 12 -9 11 -4 -5 5 -17 2 -15 -17 6 -12 14 -30 29 -39 32 -10 4 -18 11
-18 17 0 5 -16 17 -36 25 -42 17 -44 18 -44 7z"/>
<path d="M3980 2221 c-17 -5 6 -9 71 -12 92 -5 100 -7 154 -43 32 -21 60 -46
62 -57 3 -10 9 -19 14 -19 5 0 9 -17 9 -39 0 -82 -107 -231 -243 -339 -136
-109 -489 -308 -741 -419 -375 -165 -816 -289 -1048 -295 -62 -2 -91 -6 -80
-12 35 -20 367 19 579 68 400 93 968 316 1238 487 34 21 65 39 69 39 4 0 12 4
19 10 7 5 51 38 99 74 115 85 171 138 222 211 52 74 66 107 68 167 2 82 -58
138 -182 170 -59 16 -269 22 -310 9z m295 -32 c4 -6 14 -8 22 -5 19 8 65 -17
114 -61 32 -29 39 -42 39 -73 0 -21 -8 -55 -17 -76 -9 -22 -17 -42 -17 -47 -1
-4 -17 -15 -36 -25 -33 -16 -54 -52 -30 -52 6 0 9 4 6 9 -3 4 3 16 14 26 11
10 20 13 20 7 0 -15 -175 -187 -190 -187 -4 0 -14 -8 -24 -17 -21 -22 -26 -22
-26 -2 0 8 5 12 10 9 6 -3 10 -2 10 4 0 17 -17 21 -30 6 -6 -8 -9 -22 -6 -32
6 -22 -74 -75 -102 -67 -13 4 -14 4 -4 -4 11 -7 5 -15 -24 -33 -21 -12 -46
-22 -56 -22 -10 1 -18 -5 -18 -13 0 -8 -10 -14 -25 -14 -14 0 -25 -5 -25 -11
0 -5 -15 -16 -34 -24 -19 -8 -38 -20 -41 -26 -4 -5 -13 -8 -21 -5 -8 3 -14 1
-14 -4 0 -5 -17 -17 -37 -25 -28 -12 -38 -13 -44 -3 -4 7 -5 16 -3 20 3 4 -2
5 -10 2 -14 -5 -14 -8 -1 -21 20 -19 20 -19 -16 -37 -26 -13 -29 -13 -19 -1 9
10 9 15 1 15 -6 0 -16 -9 -23 -20 -7 -11 -20 -20 -28 -20 -8 0 -46 -16 -84
-35 -38 -19 -73 -32 -78 -29 -4 3 -8 0 -8 -5 0 -6 -8 -11 -18 -11 -10 0 -22
-4 -27 -8 -13 -10 -70 -29 -115 -37 -29 -5 -32 -4 -17 6 11 6 24 12 30 13 44
10 72 21 88 37 11 11 26 19 35 19 9 0 27 9 41 20 14 11 41 22 62 26 20 4 38
10 41 14 3 3 28 21 55 40 28 18 47 30 43 25 -9 -9 20 -40 30 -31 3 4 0 11 -8
17 -24 15 17 41 55 34 22 -4 25 -3 10 4 -18 7 -16 10 22 29 23 12 44 26 48 31
3 6 13 7 22 4 11 -4 14 -3 9 5 -4 7 -1 12 9 12 9 0 14 4 11 9 -3 5 6 12 21 16
14 3 38 15 51 26 14 10 33 19 44 19 11 0 17 4 14 9 -3 5 15 6 39 3 26 -2 45 0
45 5 0 5 -13 8 -29 5 -16 -2 -32 1 -36 9 -5 8 -4 10 4 5 19 -12 50 3 53 26 2
12 9 23 15 26 9 2 11 -5 7 -27 -4 -17 -2 -31 3 -31 13 0 50 29 38 30 -6 0 -16
-5 -23 -12 -9 -9 -12 -8 -12 5 0 9 8 17 17 17 15 0 14 2 -3 14 -18 14 -18 15
9 36 40 32 57 50 57 62 0 6 6 5 16 -2 12 -11 18 -10 31 3 9 9 13 20 9 24 -4 4
-11 1 -16 -7 -5 -8 -11 -12 -15 -9 -3 3 4 14 16 24 17 16 22 17 29 5 7 -11 9
-10 7 7 0 12 -5 19 -10 16 -5 -3 8 19 28 48 20 29 39 66 42 81 3 15 9 28 13
28 24 0 -19 137 -47 147 -7 3 -13 13 -13 22 0 12 -2 13 -9 3 -7 -11 -9 -11
-14 2 -5 12 0 16 18 16 13 0 27 -5 30 -11z m-235 -523 c0 -3 -4 -8 -10 -11 -5
-3 -10 -1 -10 4 0 6 5 11 10 11 6 0 10 -2 10 -4z m-810 -447 c12 -9 11 -10 -7
-6 -13 3 -23 2 -23 -2 0 -9 -169 -66 -175 -59 -3 3 27 16 67 28 40 13 82 29
93 37 23 16 26 16 45 2z m-247 -86 c-7 -2 -19 -2 -25 0 -7 3 -2 5 12 5 14 0
19 -2 13 -5z m-73 -17 c0 -2 -9 -6 -20 -9 -11 -3 -18 -1 -14 4 5 9 34 13 34 5z"/>
<path d="M4404 2084 c-1 -13 2 -24 7 -24 11 0 12 37 2 43 -5 3 -9 -6 -9 -19z"/>
<path d="M4431 2043 c0 -17 -7 -34 -13 -36 -10 -4 -10 -6 0 -6 16 -1 25 21 19
51 -3 18 -5 16 -6 -9z"/>
<path d="M4400 2030 c0 -5 5 -10 11 -10 5 0 7 5 4 10 -3 6 -8 10 -11 10 -2 0
-4 -4 -4 -10z"/>
<path d="M4290 1930 c0 -5 5 -10 11 -10 5 0 7 5 4 10 -3 6 -8 10 -11 10 -2 0
-4 -4 -4 -10z"/>
<path d="M4340 1915 c-7 -8 -16 -12 -21 -9 -5 3 -9 0 -9 -5 0 -6 6 -11 14 -11
15 0 42 28 34 35 -3 3 -11 -1 -18 -10z"/>
<path d="M4308 1863 c7 -3 16 -2 19 1 4 3 -2 6 -13 5 -11 0 -14 -3 -6 -6z"/>
<path d="M4222 1784 c-7 -8 -8 -14 -3 -14 10 0 25 19 20 25 -2 1 -10 -3 -17
-11z"/>
<path d="M4225 1760 c-16 -7 -17 -9 -3 -9 9 -1 20 4 23 9 7 11 7 11 -20 0z"/>
<path d="M4175 1749 c-11 -17 1 -21 15 -4 8 9 8 15 2 15 -6 0 -14 -5 -17 -11z"/>
<path d="M4115 1720 c-10 -11 -13 -20 -8 -20 13 0 38 29 31 35 -3 3 -13 -4
-23 -15z"/>
<path d="M4195 1730 c-3 -5 -2 -10 4 -10 5 0 13 5 16 10 3 6 2 10 -4 10 -5 0
-13 -4 -16 -10z"/>
<path d="M3924 1578 c-14 -17 -15 -19 -2 -10 9 8 29 17 45 22 l28 8 -26 1
c-15 1 -34 -8 -45 -21z"/>
<path d="M3960 1570 c-18 -12 -2 -12 25 0 13 6 15 9 5 9 -8 0 -22 -4 -30 -9z"/>
<path d="M3878 1543 c7 -3 16 -2 19 1 4 3 -2 6 -13 5 -11 0 -14 -3 -6 -6z"/>
<path d="M3800 1495 c-8 -9 -8 -15 -2 -15 12 0 26 19 19 26 -2 2 -10 -2 -17
-11z"/>
<path d="M3610 1410 c-9 -6 -10 -10 -3 -10 6 0 15 5 18 10 8 12 4 12 -15 0z"/>
<path d="M3451 1324 c-12 -14 -11 -16 4 -12 10 1 20 9 23 16 5 17 -10 15 -27
-4z"/>
<path d="M3370 1290 c-18 -12 -2 -12 25 0 13 6 15 9 5 9 -8 0 -22 -4 -30 -9z"/>
<path d="M3948 2193 c6 -2 18 -2 25 0 6 3 1 5 -13 5 -14 0 -19 -2 -12 -5z"/>
<path d="M3591 2134 c0 -11 3 -14 6 -6 3 7 2 16 -1 19 -3 4 -6 -2 -5 -13z"/>
<path d="M3063 2078 c1 -7 -3 -12 -10 -11 -14 3 -23 -21 -32 -93 -5 -36 -4
-55 3 -56 6 -1 -47 -5 -119 -8 -172 -7 -171 -24 2 -28 114 -2 132 -5 137 -20
2 -9 4 28 3 83 l-2 100 118 3 c90 2 117 0 117 -10 0 -7 3 -22 6 -34 5 -19 3
-20 -45 -14 -47 6 -51 5 -51 -14 0 -18 6 -21 47 -21 36 0 48 -4 48 -15 0 -11
-12 -15 -48 -15 -42 0 -47 -2 -45 -20 4 -29 63 -22 96 10 20 21 22 27 12 40
-10 12 -10 18 1 31 10 13 10 17 -2 26 -10 7 -11 11 -2 14 8 4 6 11 -8 25 -16
16 -33 19 -99 19 -47 0 -80 4 -80 10 0 6 -5 10 -11 10 -5 0 -8 -4 -4 -9 3 -5
1 -12 -5 -16 -5 -3 -10 1 -10 9 0 9 -4 16 -10 16 -5 0 -9 -6 -7 -12z"/>
<path d="M4246 2007 c3 -10 9 -15 12 -12 3 3 0 11 -7 18 -10 9 -11 8 -5 -6z"/>
<path d="M1921 1944 c0 -11 3 -14 6 -6 3 7 2 16 -1 19 -3 4 -6 -2 -5 -13z"/>
<path d="M2066 1927 c3 -10 9 -15 12 -12 3 3 0 11 -7 18 -10 9 -11 8 -5 -6z"/>
<path d="M4458 1868 c-14 -14 -15 -18 -4 -18 8 0 17 7 20 16 9 23 4 24 -16 2z"/>
<path d="M5440 1879 c0 -5 5 -7 10 -4 6 3 10 8 10 11 0 2 -4 4 -10 4 -5 0 -10
-5 -10 -11z"/>
<path d="M3136 1865 c-3 -8 -1 -15 4 -15 6 0 10 7 10 15 0 8 -2 15 -4 15 -2 0
-6 -7 -10 -15z"/>
<path d="M3280 1869 c0 -5 5 -7 10 -4 6 3 10 1 10 -5 0 -8 -18 -11 -52 -9 -29
2 -52 0 -50 -4 1 -4 2 -11 2 -17 0 -5 18 -10 39 -10 22 0 41 -3 44 -7 2 -5 3
-3 1 3 -1 6 6 17 17 24 13 10 15 17 7 27 -13 16 -28 17 -28 2z"/>
<path d="M3662 1865 c-11 -12 -10 -15 3 -15 8 0 15 7 15 15 0 18 -2 18 -18 0z"/>
<path d="M3545 1860 c-3 -5 -1 -10 4 -10 6 0 11 5 11 10 0 6 -2 10 -4 10 -3 0
-8 -4 -11 -10z"/>
<path d="M4085 1839 c-11 -17 1 -21 15 -4 8 9 8 15 2 15 -6 0 -14 -5 -17 -11z"/>
<path d="M5425 1820 c-16 -16 -35 -30 -43 -30 -9 0 -12 -6 -8 -16 3 -9 6 -18
6 -20 0 -2 20 -4 45 -4 25 0 45 2 45 4 0 3 -4 16 -10 30 -6 16 -6 27 0 31 12
7 13 35 2 35 -5 0 -21 -13 -37 -30z m15 -29 c0 -5 -7 -12 -16 -15 -14 -5 -15
-4 -4 9 14 17 20 19 20 6z"/>
<path d="M2217 1833 c-4 -3 -7 -11 -7 -17 0 -6 5 -5 12 2 6 6 9 14 7 17 -3 3
-9 2 -12 -2z"/>
<path d="M3848 1833 c7 -3 16 -2 19 1 4 3 -2 6 -13 5 -11 0 -14 -3 -6 -6z"/>
<path d="M3992 1795 c0 -16 2 -22 5 -12 2 9 2 23 0 30 -3 6 -5 -1 -5 -18z"/>
<path d="M4376 1792 l-19 -27 24 22 c12 12 21 24 18 27 -2 2 -13 -8 -23 -22z"/>
<path d="M3200 1770 c0 -16 7 -20 33 -20 49 0 77 11 77 28 0 11 -3 13 -11 5
-7 -7 -23 -8 -47 -2 -51 12 -52 12 -52 -11z"/>
<path d="M1685 1760 c-8 -13 3 -30 18 -30 8 0 7 3 -2 9 -7 5 -10 14 -7 20 4 6
5 11 2 11 -3 0 -8 -4 -11 -10z"/>
<path d="M1720 1760 c-9 -6 -10 -10 -3 -10 6 0 15 5 18 10 8 12 4 12 -15 0z"/>
<path d="M1749 1753 c-13 -16 -12 -17 4 -4 9 7 17 15 17 17 0 8 -8 3 -21 -13z"/>
<path d="M1749 1724 c-7 -8 -42 -35 -78 -58 -200 -130 -277 -294 -186 -395 69
-76 191 -112 390 -116 391 -8 830 60 1257 194 131 41 304 103 335 121 10 5 47
21 83 36 96 39 392 185 386 191 -3 3 -60 -20 -127 -52 -144 -66 -310 -133
-429 -170 -47 -15 -110 -35 -140 -45 -30 -10 -113 -32 -185 -49 -349 -80 -477
-95 -820 -96 -404 0 -551 29 -606 118 -41 69 -8 169 90 267 32 33 56 62 51 65
-4 3 -14 -2 -21 -11z m-129 -144 c-20 -40 -38 -56 -26 -23 6 15 4 15 -14 -2
-11 -10 -23 -16 -26 -12 -3 3 7 14 23 24 15 9 34 26 41 35 22 31 23 20 2 -22z
m-29 -98 c-3 -53 8 -84 41 -116 22 -21 16 -35 -7 -16 -8 7 -15 8 -15 2 0 -5
12 -14 28 -19 64 -23 100 -33 121 -33 12 0 20 -4 17 -9 -3 -5 4 -9 17 -9 43 1
122 -15 130 -26 5 -8 10 -7 16 3 5 7 17 11 27 7 14 -4 471 -9 594 -6 8 0 31
-2 50 -5 l35 -5 -35 12 -35 12 29 4 c16 2 32 -2 37 -9 5 -9 11 -9 23 3 9 9 24
14 36 11 11 -3 27 0 35 7 10 8 27 10 52 4 l38 -7 -40 -8 c-22 -4 -67 -14 -100
-22 -33 -8 -85 -18 -115 -21 -30 -3 -102 -13 -160 -22 -60 -10 -155 -17 -220
-17 -91 0 -102 -1 -50 -6 53 -5 30 -8 -120 -14 -127 -6 -194 -5 -213 2 -16 6
-40 9 -55 6 -23 -5 -24 -4 -7 5 15 7 7 8 -29 3 -30 -3 -47 -2 -43 4 3 5 -6 10
-22 10 -29 0 -103 33 -133 61 -10 8 -18 23 -18 34 0 10 -5 18 -10 18 -18 0
-27 42 -18 82 16 73 76 144 113 134 5 -1 8 -25 6 -54z m1528 -116 c-2 -2 -17
-6 -34 -9 l-30 -6 30 13 c26 12 47 13 34 2z m38 8 c-3 -3 -12 -4 -19 -1 -8 3
-5 6 6 6 11 1 17 -2 13 -5z m-177 -47 c-41 -10 -86 -19 -100 -19 -14 0 -28 -4
-31 -9 -3 -6 -15 -6 -29 -1 -19 7 -9 11 54 21 43 7 96 18 119 25 23 7 46 10
52 7 5 -3 -24 -14 -65 -24z"/>
<path d="M1501 1453 c-7 -8 -15 -36 -17 -62 l-3 -46 8 42 c4 23 13 49 20 57
18 21 10 29 -8 9z"/>
<path d="M1506 1398 c-3 -13 -5 -32 -5 -43 1 -11 5 -2 10 19 10 42 6 62 -5 24z"/>
<path d="M1613 1302 c-8 -5 1 -8 22 -8 19 0 35 4 35 8 0 10 -41 10 -57 0z"/>
<path d="M1547 1282 c-16 -7 -14 -10 13 -30 30 -23 43 -15 15 8 -13 11 -13 15
-3 21 16 10 0 10 -25 1z"/>
<path d="M1992 1241 c-11 -6 -10 -10 4 -15 9 -3 19 -4 22 -1 3 3 -1 6 -9 7 -8
1 54 5 136 8 l150 6 -145 2 c-80 1 -151 -2 -158 -7z"/>
<path d="M2355 1240 c43 -6 36 -7 -50 -10 -73 -3 -85 -5 -45 -8 30 -2 93 0
140 4 l85 8 -50 7 c-27 4 -68 7 -90 7 -38 -1 -38 -1 10 -8z"/>
<path d="M1928 1223 c7 -3 16 -2 19 1 4 3 -2 6 -13 5 -11 0 -14 -3 -6 -6z"/>
<path d="M2103 1223 c15 -2 39 -2 55 0 15 2 2 4 -28 4 -30 0 -43 -2 -27 -4z"/>
<path d="M2278 1203 c7 -3 16 -2 19 1 4 3 -2 6 -13 5 -11 0 -14 -3 -6 -6z"/>
<path d="M1833 1188 c7 -4 48 -7 92 -6 90 1 76 5 -32 10 -40 2 -67 0 -60 -4z"/>
<path d="M3243 1723 c-42 -4 -66 -29 -39 -39 29 -11 69 1 77 24 5 12 7 21 6
20 -1 -1 -21 -3 -44 -5z"/>
<path d="M5400 1725 c0 -2 16 -35 35 -72 l34 -68 1 38 c0 25 -4 37 -14 37 -7
0 -16 11 -18 24 -4 19 -1 22 14 18 12 -3 18 1 18 12 0 12 -9 16 -35 16 -19 0
-35 -2 -35 -5z"/>
<path d="M1614 1668 l-19 -23 25 20 c14 11 27 21 29 22 2 2 0 3 -6 3 -5 0 -18
-10 -29 -22z"/>
<path d="M3913 1655 c0 -8 4 -12 9 -9 5 3 6 10 3 15 -9 13 -12 11 -12 -6z"/>
<path d="M5371 1644 c0 -11 3 -14 6 -6 3 7 2 16 -1 19 -3 4 -6 -2 -5 -13z"/>
<path d="M2723 1570 c0 -25 2 -35 4 -22 2 12 2 32 0 45 -2 12 -4 2 -4 -23z"/>
<path d="M3355 1590 c-3 -5 -2 -10 4 -10 5 0 13 5 16 10 3 6 2 10 -4 10 -5 0
-13 -4 -16 -10z"/>
<path d="M1657 1523 c3 -7 6 -13 8 -13 2 0 5 6 8 13 3 8 -1 14 -8 14 -7 0 -11
-6 -8 -14z"/>
<path d="M4116 1515 c-3 -8 -12 -15 -21 -15 -8 0 -15 -3 -15 -8 0 -4 -17 -16
-37 -27 -21 -11 -40 -22 -43 -25 -9 -9 -137 -70 -148 -70 -6 0 -12 -3 -14 -7
-4 -11 -127 -73 -143 -73 -7 0 -20 -6 -27 -12 -26 -24 -55 -36 -102 -43 -68
-11 -63 -20 13 -21 36 -1 118 -7 181 -13 63 -7 189 -15 279 -18 136 -4 176 -2
240 13 73 17 101 31 101 52 0 6 5 12 12 14 19 7 -6 79 -42 119 -16 19 -30 37
-30 42 0 4 -9 7 -21 7 -11 0 -17 5 -14 10 3 6 -1 10 -9 10 -9 0 -16 5 -16 11
0 8 -4 8 -15 -1 -12 -10 -10 -15 12 -36 14 -13 34 -24 45 -24 13 0 20 -9 24
-30 4 -16 11 -27 15 -24 5 3 14 -8 20 -25 6 -17 15 -31 20 -31 24 0 -48 -55
-93 -71 -46 -15 -81 -17 -258 -13 -113 2 -222 8 -242 13 -20 4 -47 6 -60 4
-13 -3 -40 0 -59 5 -25 8 -28 10 -11 11 12 1 22 5 22 10 0 5 9 7 20 4 13 -4
20 0 20 10 0 17 27 30 42 20 6 -3 8 -1 5 4 -4 6 10 19 31 28 20 10 41 24 45
32 5 7 12 11 17 8 10 -6 123 46 145 68 9 10 30 17 46 17 18 0 28 5 27 13 -2 6
5 11 15 9 9 -2 17 3 17 11 0 23 45 26 71 6 26 -20 59 -25 59 -10 0 5 -18 17
-40 27 -22 10 -40 21 -40 26 0 14 -38 8 -44 -7z"/>
<path d="M4465 1520 c3 -5 8 -10 11 -10 2 0 4 5 4 10 0 6 -5 10 -11 10 -5 0
-7 -4 -4 -10z"/>
<path d="M3976 1494 c-11 -8 -16 -14 -10 -14 13 0 39 18 34 24 -3 2 -14 -2
-24 -10z"/>
<path d="M1760 1453 c0 -18 2 -33 4 -33 9 0 13 39 5 51 -6 10 -9 4 -9 -18z"/>
<path d="M2871 1464 c0 -11 3 -14 6 -6 3 7 2 16 -1 19 -3 4 -6 -2 -5 -13z"/>
<path d="M4140 1469 c0 -5 5 -7 10 -4 6 3 10 8 10 11 0 2 -4 4 -10 4 -5 0 -10
-5 -10 -11z"/>
<path d="M1646 1453 c-6 -14 -5 -15 5 -6 7 7 10 15 7 18 -3 3 -9 -2 -12 -12z"/>
<path d="M2710 1440 c-9 -6 -10 -10 -3 -10 6 0 15 5 18 10 8 12 4 12 -15 0z"/>
<path d="M2998 1443 c7 -3 16 -2 19 1 4 3 -2 6 -13 5 -11 0 -14 -3 -6 -6z"/>
<path d="M3068 1433 c12 -2 32 -2 45 0 12 2 2 4 -23 4 -25 0 -35 -2 -22 -4z"/>
<path d="M3508 1433 c6 -2 18 -2 25 0 6 3 1 5 -13 5 -14 0 -19 -2 -12 -5z"/>
<path d="M3435 1420 c3 -5 8 -10 11 -10 2 0 4 5 4 10 0 6 -5 10 -11 10 -5 0
-7 -4 -4 -10z"/>
<path d="M3348 1393 c7 -3 16 -2 19 1 4 3 -2 6 -13 5 -11 0 -14 -3 -6 -6z"/>
<path d="M3788 1393 c7 -3 16 -2 19 1 4 3 -2 6 -13 5 -11 0 -14 -3 -6 -6z"/>
<path d="M3398 1383 c7 -3 16 -2 19 1 4 3 -2 6 -13 5 -11 0 -14 -3 -6 -6z"/>
<path d="M2033 1363 c20 -2 54 -2 75 0 20 2 3 4 -38 4 -41 0 -58 -2 -37 -4z"/>
<path d="M3308 1363 c7 -3 16 -2 19 1 4 3 -2 6 -13 5 -11 0 -14 -3 -6 -6z"/>
<path d="M2758 1353 c7 -3 16 -2 19 1 4 3 -2 6 -13 5 -11 0 -14 -3 -6 -6z"/>
<path d="M2648 1333 c7 -3 16 -2 19 1 4 3 -2 6 -13 5 -11 0 -14 -3 -6 -6z"/>
<path d="M3138 1303 c6 -2 18 -2 25 0 6 3 1 5 -13 5 -14 0 -19 -2 -12 -5z"/>
<path d="M3798 1293 c7 -3 16 -2 19 1 4 3 -2 6 -13 5 -11 0 -14 -3 -6 -6z"/>
<path d="M3188 1273 c7 -3 16 -2 19 1 4 3 -2 6 -13 5 -11 0 -14 -3 -6 -6z"/>
<path d="M3528 1273 c7 -3 16 -2 19 1 4 3 -2 6 -13 5 -11 0 -14 -3 -6 -6z"/>
<path d="M1440 1231 c0 -6 4 -13 10 -16 6 -3 7 1 4 9 -7 18 -14 21 -14 7z"/>
<path d="M3698 1233 c7 -3 16 -2 19 1 4 3 -2 6 -13 5 -11 0 -14 -3 -6 -6z"/>
<path d="M2818 1213 c7 -3 16 -2 19 1 4 3 -2 6 -13 5 -11 0 -14 -3 -6 -6z"/>
<path d="M2918 1193 c6 -2 18 -2 25 0 6 3 1 5 -13 5 -14 0 -19 -2 -12 -5z"/>
<path d="M2470 1170 c-9 -6 -10 -10 -3 -10 6 0 15 5 18 10 8 12 4 12 -15 0z"/>
<path d="M3250 1170 c-8 -5 -10 -10 -5 -10 6 0 17 5 25 10 8 5 11 10 5 10 -5
0 -17 -5 -25 -10z"/>
<path d="M2378 1153 c7 -3 16 -2 19 1 4 3 -2 6 -13 5 -11 0 -14 -3 -6 -6z"/>
<path d="M2508 1153 c7 -3 16 -2 19 1 4 3 -2 6 -13 5 -11 0 -14 -3 -6 -6z"/>
<path d="M3780 1140 c14 -4 34 -8 45 -8 16 0 15 2 -5 8 -14 4 -34 8 -45 8 -16
0 -15 -2 5 -8z"/>
<path d="M2630 1090 c-8 -5 -10 -10 -5 -10 6 0 17 5 25 10 8 5 11 10 5 10 -5
0 -17 -5 -25 -10z"/>
<path d="M3018 1073 c7 -3 16 -2 19 1 4 3 -2 6 -13 5 -11 0 -14 -3 -6 -6z"/>
<path d="M2253 1043 c9 -2 23 -2 30 0 6 3 -1 5 -18 5 -16 0 -22 -2 -12 -5z"/>
<path d="M2248 1023 c6 -2 18 -2 25 0 6 3 1 5 -13 5 -14 0 -19 -2 -12 -5z"/>
<path d="M2639 1008 c-9 -29 -5 -34 20 -29 l26 5 -24 4 c-19 3 -21 6 -10 13
10 6 10 9 2 9 -7 0 -13 -1 -14 -2z"/>
<path d="M757 878 c2 -5 10 -8 18 -8 8 0 16 3 18 8 3 4 -5 7 -18 7 -13 0 -21
-3 -18 -7z"/>
<path d="M890 880 c-8 -5 -12 -11 -9 -14 3 -3 14 1 25 9 21 16 8 20 -16 5z"/>
<path d="M1082 870 c0 -14 2 -19 5 -12 2 6 2 18 0 25 -3 6 -5 1 -5 -13z"/>
<path d="M1111 874 c0 -11 3 -14 6 -6 3 7 2 16 -1 19 -3 4 -6 -2 -5 -13z"/>
<path d="M1158 883 c7 -3 16 -2 19 1 4 3 -2 6 -13 5 -11 0 -14 -3 -6 -6z"/>
<path d="M1288 883 c7 -3 16 -2 19 1 4 3 -2 6 -13 5 -11 0 -14 -3 -6 -6z"/>
<path d="M1388 883 c7 -3 16 -2 19 1 4 3 -2 6 -13 5 -11 0 -14 -3 -6 -6z"/>
<path d="M1520 880 c0 -5 5 -10 11 -10 5 0 7 5 4 10 -3 6 -8 10 -11 10 -2 0
-4 -4 -4 -10z"/>
<path d="M1578 883 c7 -3 16 -2 19 1 4 3 -2 6 -13 5 -11 0 -14 -3 -6 -6z"/>
<path d="M2000 880 c0 -5 5 -10 10 -10 6 0 10 5 10 10 0 6 -4 10 -10 10 -5 0
-10 -4 -10 -10z"/>
<path d="M2168 883 c7 -3 16 -2 19 1 4 3 -2 6 -13 5 -11 0 -14 -3 -6 -6z"/>
<path d="M2415 880 c3 -5 8 -10 11 -10 2 0 4 5 4 10 0 6 -5 10 -11 10 -5 0 -7
-4 -4 -10z"/>
<path d="M3116 877 c3 -10 9 -15 12 -12 3 3 0 11 -7 18 -10 9 -11 8 -5 -6z"/>
<path d="M3188 883 c7 -3 16 -2 19 1 4 3 -2 6 -13 5 -11 0 -14 -3 -6 -6z"/>
<path d="M3531 874 c0 -11 3 -14 6 -6 3 7 2 16 -1 19 -3 4 -6 -2 -5 -13z"/>
<path d="M3768 883 c7 -3 16 -2 19 1 4 3 -2 6 -13 5 -11 0 -14 -3 -6 -6z"/>
<path d="M4400 879 c0 -5 9 -9 20 -9 11 0 20 2 20 4 0 2 -9 6 -20 9 -11 3 -20
1 -20 -4z"/>
<path d="M4568 883 c6 -2 18 -2 25 0 6 3 1 5 -13 5 -14 0 -19 -2 -12 -5z"/>
<path d="M4682 870 c0 -14 2 -19 5 -12 2 6 2 18 0 25 -3 6 -5 1 -5 -13z"/>
<path d="M4988 883 c7 -3 16 -2 19 1 4 3 -2 6 -13 5 -11 0 -14 -3 -6 -6z"/>
<path d="M5032 870 c0 -14 2 -19 5 -12 2 6 2 18 0 25 -3 6 -5 1 -5 -13z"/>
<path d="M5238 883 c7 -3 16 -2 19 1 4 3 -2 6 -13 5 -11 0 -14 -3 -6 -6z"/>
<path d="M5305 880 c-13 -6 -15 -9 -5 -9 8 0 22 4 30 9 18 12 2 12 -25 0z"/>
<path d="M1195 869 c-4 -6 -5 -12 -2 -15 2 -3 7 2 10 11 7 17 1 20 -8 4z"/>
<path d="M2458 873 c7 -3 16 -2 19 1 4 3 -2 6 -13 5 -11 0 -14 -3 -6 -6z"/>
<path d="M5128 873 c7 -3 16 -2 19 1 4 3 -2 6 -13 5 -11 0 -14 -3 -6 -6z"/>
<path d="M5197 869 c7 -7 15 -10 18 -7 3 3 -2 9 -12 12 -14 6 -15 5 -6 -5z"/>
<path d="M1238 863 c7 -3 16 -2 19 1 4 3 -2 6 -13 5 -11 0 -14 -3 -6 -6z"/>
<path d="M2716 855 c-9 -26 -7 -32 5 -12 6 10 9 21 6 23 -2 3 -7 -2 -11 -11z"/>
<path d="M2868 863 c7 -3 16 -2 19 1 4 3 -2 6 -13 5 -11 0 -14 -3 -6 -6z"/>
<path d="M3860 860 c0 -5 5 -10 11 -10 5 0 7 5 4 10 -3 6 -8 10 -11 10 -2 0
-4 -4 -4 -10z"/>
<path d="M4578 863 c12 -2 32 -2 45 0 12 2 2 4 -23 4 -25 0 -35 -2 -22 -4z"/>
<path d="M591 844 c0 -11 3 -14 6 -6 3 7 2 16 -1 19 -3 4 -6 -2 -5 -13z"/>
<path d="M2691 844 c0 -11 3 -14 6 -6 3 7 2 16 -1 19 -3 4 -6 -2 -5 -13z"/>
<path d="M2744 845 c-10 -8 -14 -14 -9 -14 6 0 19 6 29 14 11 8 15 15 10 15
-6 0 -19 -7 -30 -15z"/>
<path d="M3195 850 c-3 -6 1 -7 9 -4 18 7 21 14 7 14 -6 0 -13 -4 -16 -10z"/>
<path d="M4861 844 c0 -11 3 -14 6 -6 3 7 2 16 -1 19 -3 4 -6 -2 -5 -13z"/>
<path d="M1210 839 c0 -5 5 -7 10 -4 6 3 10 8 10 11 0 2 -4 4 -10 4 -5 0 -10
-5 -10 -11z"/>
<path d="M4721 820 c6 -16 9 -95 7 -179 l-3 -151 44 0 43 0 -4 116 c-3 105 -2
113 10 82 8 -18 37 -70 65 -115 52 -83 52 -83 95 -83 l42 0 0 165 c0 91 0 168
0 172 0 4 -19 8 -42 8 l-43 0 4 -90 c1 -50 7 -97 11 -105 7 -12 9 -11 10 5 0
21 5 105 8 143 1 12 6 22 11 22 5 0 10 -51 11 -112 1 -62 3 -128 4 -147 1 -29
-3 -34 -22 -36 -24 -2 -48 25 -73 83 -8 17 -17 32 -21 32 -5 0 -8 10 -8 23 0
18 -2 19 -10 7 -8 -13 -10 -12 -11 5 -1 11 -1 29 0 40 2 17 0 18 -9 5 -9 -12
-10 -9 -6 15 5 22 4 26 -3 15 -6 -8 -16 -15 -23 -15 -10 0 -14 -27 -16 -102
-1 -58 -7 -103 -12 -103 -6 0 -11 12 -11 28 -2 24 -2 23 -9 -8 -4 -21 -7 29
-7 120 0 96 3 138 7 110 l7 -45 1 43 c2 30 6 42 17 42 8 0 15 -6 15 -12 0 -9
4 -8 11 2 8 12 9 8 5 -15 -3 -16 -3 -24 0 -17 12 28 30 7 41 -48 6 -33 13 -39
13 -10 0 20 3 18 20 -15 11 -22 20 -45 20 -52 0 -7 7 -10 15 -7 13 5 12 10 -2
37 -12 26 -78 139 -90 156 -2 2 -19 4 -38 3 -19 -1 -46 3 -59 8 -24 9 -24 8
-15 -20z"/>
<path d="M4900 839 c0 -5 5 -7 10 -4 6 3 10 8 10 11 0 2 -4 4 -10 4 -5 0 -10
-5 -10 -11z"/>
<path d="M620 663 l0 -173 125 0 125 0 0 40 0 40 -70 0 -70 0 0 133 0 132 -55
1 -55 0 0 -173z m78 32 c3 -122 12 -142 65 -147 21 -2 33 -9 35 -21 3 -16 -4
-18 -70 -15 l-73 3 -3 148 -3 148 23 -3 c22 -3 23 -7 26 -113z m119 -177 c-3
-7 -5 -2 -5 12 0 14 2 19 5 13 2 -7 2 -19 0 -25z"/>
<path d="M897 834 c-1 -1 0 -68 3 -148 6 -170 10 -179 101 -198 44 -9 63 -8
98 3 73 23 80 42 82 204 l1 139 -41 1 -41 1 0 -128 c0 -119 -1 -128 -21 -138
-11 -7 -32 -9 -45 -6 -23 6 -23 9 -26 137 l-3 131 -53 2 c-29 1 -54 1 -55 0z
m43 -39 c1 20 1 20 12 0 11 -19 11 -19 19 0 4 11 8 -29 8 -91 1 -135 13 -159
80 -159 37 0 40 -1 25 -12 -10 -7 -13 -13 -7 -13 14 0 34 25 26 33 -3 4 0 14
8 23 9 11 13 48 12 127 -1 72 2 101 7 82 l8 -30 1 28 c0 15 6 27 11 27 15 0
12 -241 -3 -261 -22 -29 -56 -40 -119 -37 -94 3 -97 8 -102 168 -2 75 0 126 4
115 l9 -20 1 20z"/>
<path d="M1131 694 c0 -21 4 -48 9 -59 5 -12 6 1 3 35 -7 66 -13 79 -12 24z"/>
<path d="M1136 573 c-6 -14 -5 -15 5 -6 7 7 10 15 7 18 -3 3 -9 -2 -12 -12z"/>
<path d="M952 548 c8 -12 21 -24 29 -26 8 -2 6 4 -5 12 -26 21 2 22 30 1 10
-8 28 -14 39 -14 21 0 -25 24 -78 40 -28 8 -28 7 -15 -13z"/>
<path d="M1240 829 c0 -5 5 -7 10 -4 6 3 10 8 10 11 0 2 -4 4 -10 4 -5 0 -10
-5 -10 -11z"/>
<path d="M1303 833 c-31 -6 -70 -48 -77 -84 -13 -67 37 -116 137 -135 41 -7
59 -30 36 -45 -19 -13 -71 -2 -86 17 -9 13 -22 15 -62 9 l-49 -7 20 -35 c31
-51 62 -68 132 -68 77 0 120 18 147 62 16 25 19 42 15 68 -9 45 -36 70 -94 85
-71 18 -92 28 -92 45 0 24 57 23 76 -1 10 -12 19 -13 57 -2 l46 12 -17 28
c-27 45 -106 67 -189 51z m62 -24 c4 -5 21 -8 38 -5 18 3 26 3 19 0 -10 -5 -9
-9 5 -20 25 -19 38 -17 22 4 -13 15 -12 16 4 3 30 -24 4 -36 -40 -18 -42 17
-92 12 -100 -9 -8 -21 -26 -17 -19 4 5 14 3 13 -9 -3 -14 -18 -14 -20 3 -26
20 -8 40 -29 41 -44 0 -5 8 -11 18 -13 15 -3 16 -1 3 8 -11 8 -8 9 15 4 17 -4
35 -11 41 -15 6 -5 13 -6 17 -3 3 3 20 -2 37 -12 28 -17 31 -23 28 -64 -3 -38
-8 -48 -37 -67 -19 -13 -39 -23 -45 -23 -6 0 -4 4 4 10 8 5 12 12 8 15 -3 3
-13 -1 -21 -10 -17 -17 -54 -20 -77 -5 -9 5 -19 5 -25 0 -8 -6 -19 0 -33 19
l-21 29 21 5 c12 3 33 0 47 -8 l26 -14 -35 4 c-19 3 -28 2 -20 -1 8 -3 29 -12
47 -20 36 -16 46 -18 39 -5 -4 5 6 12 21 15 45 10 80 96 40 96 -7 0 -7 -4 1
-12 19 -19 14 -33 -5 -16 -10 9 -29 19 -43 23 -14 4 -36 16 -49 27 -15 11 -28
15 -34 9 -13 -13 -47 19 -47 46 0 41 21 73 49 74 23 0 24 1 6 9 -18 7 -16 8
10 12 17 3 33 6 37 7 4 0 10 -4 13 -10z m-35 -159 c0 -5 -7 -7 -15 -4 -8 4
-15 8 -15 10 0 2 7 4 15 4 8 0 15 -4 15 -10z"/>
<path d="M1338 793 c7 -3 16 -2 19 1 4 3 -2 6 -13 5 -11 0 -14 -3 -6 -6z"/>
<path d="M1280 700 c0 -5 5 -10 11 -10 5 0 7 5 4 10 -3 6 -8 10 -11 10 -2 0
-4 -4 -4 -10z"/>
<path d="M1370 655 c33 -19 49 -19 24 0 -10 8 -26 14 -34 14 -9 0 -4 -6 10
-14z"/>
<path d="M1469 598 c-3 -22 -1 -34 4 -29 5 5 7 21 5 37 -3 27 -4 26 -9 -8z"/>
<path d="M1425 550 c-3 -5 1 -10 9 -10 9 0 16 5 16 10 0 6 -4 10 -9 10 -6 0
-13 -4 -16 -10z"/>
<path d="M1560 663 l0 -173 56 0 55 0 -3 67 -3 66 40 0 40 0 3 -66 3 -67 49 0
50 0 0 173 0 172 -50 1 -50 0 0 -66 0 -66 -42 1 -43 1 0 64 0 64 -52 1 -53 1
0 -173z m40 97 l3 55 7 -45 c7 -45 7 -45 8 -8 3 61 22 56 22 -7 0 -44 4 -57
18 -63 13 -5 11 -8 -13 -13 -30 -7 -30 -7 -3 -8 15 0 38 3 53 9 20 8 27 7 31
-5 7 -18 28 -21 22 -3 -2 6 4 20 15 31 12 12 17 27 13 41 -8 34 4 66 25 66 11
0 19 -6 20 -12 0 -7 2 -73 2 -146 l2 -133 -25 3 c-26 3 -27 5 -29 62 -1 43
-25 69 -55 61 -17 -5 -18 -4 -6 4 9 7 10 11 3 11 -6 0 -15 -4 -18 -10 -9 -15
-27 -12 -19 3 4 6 -4 2 -18 -10 -13 -13 -32 -23 -42 -23 -15 0 -17 5 -12 28 4
17 3 22 -2 13 -5 -7 -10 -43 -11 -79 -1 -36 -3 -68 -6 -70 -3 -3 -4 66 -3 154
1 114 3 142 8 99 l7 -60 3 55z m40 -200 c0 -55 -19 -70 -21 -17 l-2 32 -7 -35
-7 -35 -2 38 c-1 23 4 37 12 38 10 0 10 2 0 6 -20 8 -15 23 7 23 17 0 20 -7
20 -50z"/>
<path d="M1605 700 c-3 -5 -1 -10 4 -10 6 0 11 5 11 10 0 6 -2 10 -4 10 -3 0
-8 -4 -11 -10z"/>
<path d="M2044 831 c-2 -2 -4 -80 -4 -173 l0 -168 135 0 135 0 0 40 0 40 -80
0 -80 0 0 33 0 32 65 -3 65 -4 0 39 0 39 -65 -4 -65 -4 0 28 0 29 80 -1 80 -1
0 41 0 41 -131 0 c-72 0 -132 -2 -135 -4z m70 -40 c14 -12 16 -12 10 3 -4 11
-1 16 10 16 18 0 22 -25 6 -35 -5 -3 -10 -17 -10 -31 0 -14 -4 -22 -10 -19
-17 10 -11 -4 10 -25 15 -15 33 -20 70 -20 38 0 50 -4 50 -15 0 -11 -11 -15
-47 -13 l-48 1 45 7 45 7 -47 1 c-39 2 -48 -1 -53 -19 -4 -11 -12 -18 -19 -16
-8 3 -12 -7 -13 -31 -1 -19 2 -30 6 -23 5 8 12 3 19 -15 12 -24 16 -26 67 -22
46 2 55 0 55 -13 0 -14 -15 -17 -95 -18 l-95 -2 0 150 c0 157 3 166 44 132z
m139 4 c6 -6 10 -6 14 3 7 17 24 15 17 -3 -9 -22 -124 -22 -124 0 0 12 10 15
43 13 23 -2 46 -7 50 -13z"/>
<path d="M2087 760 c3 -11 7 -20 9 -20 2 0 4 9 4 20 0 11 -4 20 -9 20 -5 0 -7
-9 -4 -20z"/>
<path d="M2090 697 c0 -6 11 -17 25 -24 31 -14 31 -12 0 15 -15 13 -25 17 -25
9z"/>
<path d="M2087 645 c7 -37 13 -45 13 -18 0 12 3 23 8 26 4 2 2 2 -5 1 -6 -2
-14 2 -17 9 -3 7 -3 -1 1 -18z"/>
<path d="M2350 666 l0 -176 45 0 c52 0 50 -8 36 135 -4 45 -4 89 1 100 9 20 9
20 -6 1 -17 -21 -18 -32 -16 -141 1 -65 0 -71 -19 -71 -20 0 -21 6 -21 146 0
141 1 146 21 147 20 2 21 -2 16 -40 -4 -27 -2 -36 4 -26 5 7 9 30 10 49 1 19
3 27 6 17 2 -9 8 -15 13 -12 15 9 32 -35 25 -63 -6 -25 -5 -26 8 -8 14 19 15
19 30 -10 8 -16 22 -42 30 -57 10 -18 16 -23 20 -14 3 7 -18 52 -47 100 -49
84 -52 87 -88 87 -20 0 -43 3 -52 6 -14 5 -16 -13 -16 -170z"/>
<path d="M2560 758 c0 -89 5 -108 31 -108 14 0 19 7 18 28 l0 27 -10 -24 c-5
-13 -11 -22 -14 -20 -8 8 8 149 16 149 11 0 10 13 15 -114 4 -84 2 -111 -8
-117 -10 -7 -10 -9 0 -9 20 0 14 -47 -7 -53 -10 -2 -23 -2 -29 2 -10 6 -43 57
-64 101 -23 46 -68 104 -68 87 0 -18 43 -102 84 -161 14 -21 26 -43 26 -47 0
-5 22 -9 50 -9 l50 0 -1 173 0 174 -45 -1 -44 -1 0 -77z"/>
<path d="M2765 813 c-81 -59 -98 -198 -34 -276 50 -61 145 -73 196 -25 l23 21
0 -21 c0 -18 6 -22 30 -22 l30 0 0 95 0 95 -80 0 -80 0 0 -35 c0 -32 2 -35 30
-35 17 0 30 -3 30 -7 -1 -21 -22 -36 -50 -36 -37 0 -47 12 -56 70 -12 83 34
155 75 114 10 -10 20 -24 23 -31 3 -9 19 -10 62 -5 32 4 54 10 48 14 -5 3 -12
16 -16 29 -13 40 -72 75 -134 80 -50 3 -62 0 -97 -25z m147 -10 c10 -9 18 -23
19 -32 0 -12 2 -11 8 4 8 19 8 19 20 -4 8 -15 9 -21 2 -17 -6 4 -11 0 -11 -8
0 -24 -12 -19 -38 14 -14 17 -29 27 -38 23 -8 -3 -14 0 -14 6 0 14 -37 -6 -62
-34 -13 -15 -17 -38 -18 -92 0 -77 -4 -71 81 -135 23 -18 23 -18 2 -18 -12 0
-28 -3 -37 -6 -9 -3 -16 -1 -16 5 0 6 8 11 18 12 11 0 12 2 4 6 -7 3 -19 0
-26 -6 -10 -8 -20 -6 -40 10 -21 17 -25 24 -14 30 10 7 10 9 -2 9 -26 0 -41
58 -29 109 5 24 7 46 5 49 -3 2 13 23 35 46 24 24 43 36 45 29 4 -8 12 -8 32
3 35 18 51 18 74 -3z m14 -154 c-13 21 13 11 28 -11 9 -12 16 -18 16 -12 0 5
-5 15 -12 22 -9 9 -8 12 5 12 15 0 17 -11 16 -77 -1 -43 -4 -67 -6 -53 -3 13
-12 34 -20 45 -12 16 -14 16 -10 3 4 -12 1 -18 -8 -18 -10 0 -12 -6 -8 -17 6
-16 5 -16 -10 -4 -16 12 -16 16 -2 31 8 9 15 24 15 34 0 9 5 14 10 11 6 -3 10
-1 10 5 0 6 -6 10 -12 9 -7 -1 -26 -1 -41 0 -23 1 -26 3 -15 15 9 10 18 11 32
4 13 -7 16 -7 12 1z m-27 -112 c15 -19 2 -29 -15 -12 -8 7 -14 16 -14 19 0 11
17 6 29 -7z"/>
<path d="M2870 799 c0 -5 5 -7 10 -4 6 3 10 8 10 11 0 2 -4 4 -10 4 -5 0 -10
-5 -10 -11z"/>
<path d="M2760 755 c-7 -9 -8 -15 -2 -15 5 0 12 7 16 15 3 8 4 15 2 15 -2 0
-9 -7 -16 -15z"/>
<path d="M2781 560 c-12 -7 -12 -10 0 -23 12 -11 17 -12 26 -1 16 16 -6 37
-26 24z"/>
<path d="M3060 665 l0 -175 55 0 55 0 0 175 0 175 -55 0 -55 0 0 -175z m27 88
c-2 -16 -4 -5 -4 22 0 28 2 40 4 28 2 -13 2 -35 0 -50z m55 -87 l-3 -151 -25
0 c-25 0 -26 2 -20 44 3 24 6 92 6 150 0 103 1 106 23 107 l22 2 -3 -152z"/>
<path d="M3122 750 c0 -14 2 -19 5 -12 2 6 2 18 0 25 -3 6 -5 1 -5 -13z"/>
<path d="M3234 831 c-2 -2 -4 -80 -4 -173 l0 -168 46 0 47 0 -6 117 -6 117 20
-43 c10 -24 40 -77 65 -117 46 -74 46 -74 90 -74 l44 0 0 173 0 172 -46 2 -47
2 5 -95 c3 -52 4 -93 3 -92 -1 2 -27 43 -58 92 l-55 89 -47 1 c-26 0 -49 -1
-51 -3z m66 -36 l2 30 9 -32 c5 -18 14 -33 21 -33 7 0 6 5 -2 15 -7 9 -11 17
-8 20 4 5 32 -24 36 -38 1 -4 9 -19 18 -33 14 -21 15 -29 5 -52 -12 -25 -11
-26 5 -10 16 16 18 15 33 -3 11 -13 23 -17 39 -13 18 5 21 9 10 16 -9 7 -10
11 -2 14 8 3 10 29 8 72 l-3 67 9 -60 c14 -85 20 -91 13 -12 -4 51 -3 67 7 67
10 0 12 -23 7 -107 -4 -58 -7 -123 -7 -145 0 -33 -3 -38 -24 -38 -29 0 -48 22
-40 46 5 15 4 16 -4 4 -9 -12 -12 -10 -20 10 -6 14 -24 42 -41 64 -17 21 -31
42 -31 47 0 4 -3 16 -6 26 -5 15 -4 16 6 3 10 -13 11 -13 7 0 -2 8 -9 15 -16
15 -6 0 -16 6 -20 14 -11 17 -31 6 -30 -17 0 -14 2 -14 8 2 4 11 10 15 14 10
8 -14 -3 -55 -13 -49 -4 3 -7 -6 -6 -19 0 -13 4 -22 9 -19 4 2 7 -14 7 -36 0
-22 -4 -43 -10 -46 -5 -3 -10 -19 -10 -34 0 -18 -5 -28 -15 -28 -13 0 -15 23
-13 151 0 99 3 135 8 106 l7 -45 1 41 c2 50 15 65 23 27 l7 -28 2 30z m-3
-272 c-3 -10 -5 -2 -5 17 0 19 2 27 5 18 2 -10 2 -26 0 -35z"/>
<path d="M3350 691 c0 -5 5 -13 10 -16 6 -3 10 -2 10 4 0 5 -4 13 -10 16 -5 3
-10 2 -10 -4z"/>
<path d="M3263 610 c0 -25 2 -35 4 -22 2 12 2 32 0 45 -2 12 -4 2 -4 -23z"/>
<path d="M3399 632 c6 -12 16 -24 22 -28 8 -4 8 -1 0 14 -6 12 -16 24 -22 28
-8 4 -8 1 0 -14z"/>
<path d="M3282 615 c0 -16 2 -22 5 -12 2 9 2 23 0 30 -3 6 -5 -1 -5 -18z"/>
<path d="M3590 663 l0 -173 130 0 130 0 0 40 0 40 -80 0 -80 0 0 30 0 30 68 0
68 0 -4 38 -4 37 -64 -3 -64 -4 0 32 0 31 80 -7 80 -7 0 44 0 44 -130 0 -130
0 0 -172z m145 137 c-3 -5 -1 -10 4 -10 6 0 11 5 11 10 0 6 17 9 38 8 l37 -1
-35 -5 -35 -6 40 -6 c38 -7 37 -7 -17 -9 -33 0 -58 3 -58 9 0 6 -10 10 -22 9
-22 0 -22 -1 -3 -8 19 -8 19 -8 -3 -20 -31 -17 -28 -88 4 -94 5 -1 8 -5 7 -9
-2 -5 2 -8 7 -8 6 0 10 5 10 10 0 6 18 10 40 10 29 0 40 -4 40 -15 0 -16 -35
-21 -44 -6 -4 5 -24 0 -46 -10 -32 -16 -40 -25 -40 -47 1 -48 20 -62 89 -62
33 0 61 -4 61 -9 0 -9 -178 -22 -192 -14 -5 2 -8 69 -8 149 l0 144 61 0 c37 0
58 -4 54 -10z"/>
<path d="M3890 663 l0 -172 135 -3 135 -3 0 43 0 42 -80 0 -80 0 0 31 0 30 63
-2 62 -3 0 39 0 39 -62 -3 -63 -2 0 28 0 28 80 -2 79 -2 -1 42 0 42 -134 0
-134 0 0 -172z m153 140 c73 -6 76 -26 3 -21 -60 3 -76 -9 -76 -57 0 -31 26
-45 84 -45 37 0 46 -3 46 -17 0 -13 -3 -14 -12 -5 -7 7 -30 11 -52 10 l-41 -1
45 -7 45 -7 -45 -3 c-25 -1 -48 -2 -52 -1 -4 0 -10 -15 -14 -35 -9 -47 15 -74
68 -74 28 0 38 -4 38 -15 0 -13 -13 -15 -77 -13 l-78 3 -2 45 c-1 25 1 37 4
28 2 -10 9 -18 14 -18 5 0 3 12 -4 28 -17 32 -22 132 -7 132 5 0 10 5 10 11 0
5 -4 8 -9 5 -5 -3 -11 8 -13 24 -6 40 6 44 125 33z m83 -20 c-10 -10 -19 5
-10 18 6 11 8 11 12 0 2 -7 1 -15 -2 -18z m-16 -253 c0 -11 -4 -20 -10 -20 -5
0 -10 9 -10 20 0 11 5 20 10 20 6 0 10 -9 10 -20z m17 -12 c-3 -7 -5 -2 -5 12
0 14 2 19 5 13 2 -7 2 -19 0 -25z"/>
<path d="M3930 701 c0 -5 5 -13 10 -16 6 -3 10 -2 10 4 0 5 -4 13 -10 16 -5 3
-10 2 -10 -4z"/>
<path d="M4197 833 c-1 -1 -1 -78 1 -172 l3 -171 52 0 52 0 -1 64 c-1 46 2 66
11 70 19 7 30 -10 51 -76 l18 -58 59 0 c66 0 65 -4 22 93 l-23 52 30 25 c58
50 33 149 -42 165 -24 5 -229 13 -233 8z m30 -255 c-1 -46 -3 -11 -3 77 0 88
2 125 3 83 2 -42 2 -114 0 -160z m96 220 c-2 -5 2 -8 11 -8 8 0 17 6 20 13 5
10 7 10 12 0 3 -7 14 -13 24 -13 10 0 21 6 23 13 3 7 6 5 6 -5 1 -10 11 -23
24 -29 22 -12 22 -12 3 10 -11 11 -15 21 -9 21 5 0 18 -9 28 -20 10 -11 14
-20 10 -20 -5 0 -4 -5 3 -12 8 -8 8 -17 1 -30 -6 -11 -8 -22 -5 -25 8 -8 -35
-38 -53 -38 -8 0 -16 10 -17 22 -3 16 0 21 11 17 8 -4 15 -1 15 5 0 6 9 11 20
11 12 0 20 7 20 18 0 13 -2 14 -9 3 -6 -9 -16 -11 -32 -6 -23 8 -23 8 -4 15
18 7 16 10 -15 23 -43 17 -112 29 -105 17 3 -5 -5 -11 -17 -13 -13 -2 5 -5 38
-6 45 -1 63 -5 68 -16 12 -33 -15 -55 -71 -55 -19 0 -23 6 -23 30 0 26 -3 30
-27 29 -17 -1 -21 -3 -10 -6 10 -3 17 -14 17 -28 0 -12 6 -27 13 -32 20 -16
85 -23 90 -10 2 7 7 9 11 6 4 -4 -1 -14 -11 -24 -16 -17 -16 -17 5 -11 24 8
29 -3 10 -22 -9 -9 -9 -15 1 -24 10 -11 11 -10 6 5 -5 11 -2 17 6 17 8 0 23
-19 33 -43 11 -23 22 -46 24 -52 3 -5 -5 -1 -17 9 -22 20 -30 9 -9 -12 9 -9 6
-12 -15 -10 -19 2 -26 7 -22 16 3 8 5 20 5 28 0 8 6 11 17 7 10 -4 14 -2 9 5
-12 20 -43 10 -39 -13 2 -11 -6 4 -17 33 -13 30 -28 52 -36 52 -8 0 -12 5 -9
10 9 15 -1 12 -32 -7 -26 -17 -28 -22 -25 -75 3 -52 1 -57 -17 -55 -18 1 -21
8 -21 48 0 28 5 50 13 53 10 5 10 7 0 12 -21 10 -14 34 10 35 l22 2 -22 4
c-24 5 -32 23 -10 23 8 0 7 4 -3 10 -13 9 -13 11 0 20 10 6 11 10 3 10 -7 0
-13 11 -13 25 0 19 6 25 23 26 l22 2 -22 4 c-39 8 -25 21 21 19 24 0 42 -4 39
-8z"/>
<path d="M4435 679 c-11 -16 -1 -19 13 -3 7 8 8 14 3 14 -5 0 -13 -5 -16 -11z"/>
<path d="M4258 643 c7 -3 16 -2 19 1 4 3 -2 6 -13 5 -11 0 -14 -3 -6 -6z"/>
<path d="M4560 665 l0 -175 55 0 55 0 0 175 0 175 -55 0 -55 0 0 -175z m85 72
c-1 -210 -2 -217 -30 -217 -14 0 -25 3 -25 8 -1 13 -2 226 -1 260 1 28 4 32
29 32 l27 0 0 -83z"/>
<path d="M5160 822 c-55 -27 -89 -86 -90 -154 0 -31 5 -69 11 -85 17 -46 67
-91 110 -98 40 -7 109 10 109 26 0 5 7 9 15 9 8 0 15 -7 15 -15 0 -10 10 -15
28 -15 l27 0 0 95 0 95 -80 0 -80 0 0 -32 c0 -30 3 -33 35 -38 l35 -5 -23 -23
c-25 -25 -57 -22 -79 7 -15 20 -17 98 -2 140 9 25 16 31 40 31 22 0 32 -7 41
-26 11 -24 16 -25 61 -21 27 3 51 7 52 9 2 2 -6 21 -18 42 -40 70 -132 96
-207 58z m125 -12 c4 -6 10 -8 14 -5 5 2 19 -8 32 -23 l24 -27 -27 24 c-32 28
-38 18 -7 -15 18 -19 18 -22 4 -28 -11 -4 -14 -2 -9 6 5 7 2 9 -9 5 -11 -4
-14 -2 -10 9 3 9 0 14 -8 12 -8 -2 -15 7 -17 20 -2 12 -7 22 -12 22 -5 0 -7
-7 -4 -15 4 -10 0 -15 -11 -15 -12 0 -15 5 -11 18 6 16 5 16 -8 0 -7 -10 -22
-18 -34 -18 -29 0 -36 -23 -36 -124 -1 -49 1 -82 2 -72 3 15 7 13 18 -9 16
-32 11 -44 -11 -25 -8 7 -15 8 -15 2 0 -15 31 -24 44 -13 7 6 18 6 25 1 18
-11 40 -2 69 26 30 29 25 58 -11 62 -16 2 -27 9 -27 19 0 13 8 15 47 9 25 -3
48 -8 50 -10 3 -2 6 -31 7 -64 l3 -59 -26 13 c-33 18 -41 17 -41 -1 0 -9 -6
-12 -17 -8 -11 4 -14 3 -9 -5 5 -8 -3 -12 -23 -12 -18 0 -31 5 -31 13 0 9 -3
8 -9 -2 -7 -11 -13 -11 -37 1 -16 8 -28 20 -26 26 1 7 -5 12 -13 12 -9 0 -12
6 -8 17 4 10 2 14 -4 10 -7 -5 -14 8 -18 33 -9 51 13 131 37 138 9 2 19 10 22
18 6 16 -10 19 -17 4 -3 -6 -4 -5 -3 2 2 7 9 13 17 13 8 0 17 5 21 10 5 6 8 5
8 -2 0 -7 7 -13 15 -13 8 0 15 7 15 15 0 17 65 22 75 5z m-100 -59 c-3 -6 -11
-11 -17 -11 -6 0 -6 6 2 15 14 17 26 13 15 -4z"/>
<path d="M5128 725 c2 -14 6 -25 8 -25 2 0 4 11 4 25 0 14 -4 25 -9 25 -4 0
-6 -11 -3 -25z"/>
<path d="M5102 650 c0 -14 2 -19 5 -12 2 6 2 18 0 25 -3 6 -5 1 -5 -13z"/>
<path d="M5121 654 c0 -11 3 -14 6 -6 3 7 2 16 -1 19 -3 4 -6 -2 -5 -13z"/>
<path d="M5136 624 c-3 -26 -4 -49 -2 -52 3 -2 8 17 11 43 4 25 5 48 3 51 -3
2 -8 -17 -12 -42z"/>
<path d="M5268 643 c6 -2 18 -2 25 0 6 3 1 5 -13 5 -14 0 -19 -2 -12 -5z"/>
<path d="M5315 630 c4 -6 11 -8 16 -5 14 9 11 15 -7 15 -8 0 -12 -5 -9 -10z"/>
<path d="M5330 600 c0 -5 5 -10 10 -10 6 0 10 5 10 10 0 6 -4 10 -10 10 -5 0
-10 -4 -10 -10z"/>
<path d="M5315 570 c-3 -5 -1 -10 4 -10 6 0 11 5 11 10 0 6 -2 10 -4 10 -3 0
-8 -4 -11 -10z"/>
<path d="M2692 800 c0 -14 2 -19 5 -12 2 6 2 18 0 25 -3 6 -5 1 -5 -13z"/>
<path d="M2012 755 c0 -16 2 -22 5 -12 2 9 2 23 0 30 -3 6 -5 -1 -5 -18z"/>
<path d="M2435 770 c3 -5 8 -10 11 -10 2 0 4 5 4 10 0 6 -5 10 -11 10 -5 0 -7
-4 -4 -10z"/>
<path d="M2303 725 c-3 -9 -3 -18 -1 -21 3 -3 8 4 11 16 6 23 -1 27 -10 5z"/>
<path d="M1903 650 c0 -47 2 -66 4 -42 2 23 2 61 0 85 -2 23 -4 4 -4 -43z"/>
<path d="M2383 650 c0 -47 2 -66 4 -42 2 23 2 61 0 85 -2 23 -4 4 -4 -43z"/>
<path d="M2481 704 c0 -11 3 -14 6 -6 3 7 2 16 -1 19 -3 4 -6 -2 -5 -13z"/>
<path d="M5400 709 c0 -5 5 -7 10 -4 6 3 10 8 10 11 0 2 -4 4 -10 4 -5 0 -10
-5 -10 -11z"/>
<path d="M2490 676 c0 -2 7 -9 15 -16 13 -11 14 -10 9 4 -5 14 -24 23 -24 12z"/>
<path d="M1051 634 c0 -11 3 -14 6 -6 3 7 2 16 -1 19 -3 4 -6 -2 -5 -13z"/>
<path d="M2510 636 c0 -4 7 -14 15 -22 8 -9 15 -11 15 -6 0 5 -7 15 -15 22 -8
7 -15 9 -15 6z"/>
<path d="M2556 614 c-9 -24 -4 -24 18 -3 16 16 17 19 4 19 -9 0 -19 -7 -22
-16z"/>
<path d="M4943 546 c7 -14 13 -23 15 -21 7 6 -9 45 -18 45 -4 0 -3 -11 3 -24z"/>
<path d="M5413 530 c0 -25 2 -35 4 -22 2 12 2 32 0 45 -2 12 -4 2 -4 -23z"/>
<path d="M2013 525 c0 -22 2 -30 4 -17 2 12 2 30 0 40 -3 9 -5 -1 -4 -23z"/>
<path d="M4862 515 c0 -16 2 -22 5 -12 2 9 2 23 0 30 -3 6 -5 -1 -5 -18z"/>
<path d="M2490 520 c0 -5 5 -10 11 -10 5 0 7 5 4 10 -3 6 -8 10 -11 10 -2 0
-4 -4 -4 -10z"/>
<path d="M1181 504 c0 -11 3 -14 6 -6 3 7 2 16 -1 19 -3 4 -6 -2 -5 -13z"/>
<path d="M1848 453 c7 -3 16 -2 19 1 4 3 -2 6 -13 5 -11 0 -14 -3 -6 -6z"/>
<path d="M1018 433 c7 -3 16 -2 19 1 4 3 -2 6 -13 5 -11 0 -14 -3 -6 -6z"/>
<path d="M1580 433 c8 -3 19 -11 23 -17 6 -7 7 -6 4 4 -2 8 -12 16 -23 17 -13
2 -15 1 -4 -4z"/>
<path d="M1675 430 c3 -5 8 -10 11 -10 2 0 4 5 4 10 0 6 -5 10 -11 10 -5 0 -7
-4 -4 -10z"/>
<path d="M2018 433 c12 -2 32 -2 45 0 12 2 2 4 -23 4 -25 0 -35 -2 -22 -4z"/>
<path d="M2408 433 c6 -2 18 -2 25 0 6 3 1 5 -13 5 -14 0 -19 -2 -12 -5z"/>
<path d="M3265 430 c-16 -7 -17 -9 -3 -9 9 -1 20 4 23 9 7 11 7 11 -20 0z"/>
<path d="M3618 433 c7 -3 16 -2 19 1 4 3 -2 6 -13 5 -11 0 -14 -3 -6 -6z"/>
<path d="M4210 429 c0 -5 5 -7 10 -4 6 3 10 8 10 11 0 2 -4 4 -10 4 -5 0 -10
-5 -10 -11z"/>
<path d="M4733 433 c9 -2 23 -2 30 0 6 3 -1 5 -18 5 -16 0 -22 -2 -12 -5z"/>
<path d="M5138 433 c-10 -2 -18 -9 -18 -14 0 -6 8 -5 20 1 11 6 20 13 20 15 0
3 -1 4 -2 4 -2 -1 -11 -3 -20 -6z"/>
<path d="M5238 433 c7 -3 16 -2 19 1 4 3 -2 6 -13 5 -11 0 -14 -3 -6 -6z"/>
<path d="M5298 433 c6 -2 18 -2 25 0 6 3 1 5 -13 5 -14 0 -19 -2 -12 -5z"/>
<path d="M858 423 c7 -3 16 -2 19 1 4 3 -2 6 -13 5 -11 0 -14 -3 -6 -6z"/>
<path d="M2248 423 c7 -3 16 -2 19 1 4 3 -2 6 -13 5 -11 0 -14 -3 -6 -6z"/>
<path d="M5388 423 c7 -3 16 -2 19 1 4 3 -2 6 -13 5 -11 0 -14 -3 -6 -6z"/>
<path d="M2232 330 c0 -14 2 -19 5 -12 2 6 2 18 0 25 -3 6 -5 1 -5 -13z"/>
<path d="M5181 273 c-11 -39 -6 -57 9 -33 10 15 14 70 5 70 -2 0 -9 -17 -14
-37z"/>
<path d="M856 269 c-19 -39 -19 -39 -2 -39 7 0 16 14 20 32 8 43 1 46 -18 7z"/>
<path d="M927 294 c-3 -3 3 -20 14 -37 12 -21 19 -50 19 -85 0 -44 3 -53 16
-50 11 2 18 15 19 34 3 33 43 114 57 114 4 0 8 7 8 15 0 29 -27 14 -46 -25
-10 -22 -22 -40 -25 -40 -3 0 -12 18 -19 40 -12 37 -28 49 -43 34z"/>
<path d="M1506 291 c-2 -3 -4 -22 -4 -42 -1 -20 -6 -48 -12 -63 -23 -61 -18
-66 69 -66 71 0 80 2 86 20 8 26 35 26 35 0 0 -13 7 -20 20 -20 11 0 20 7 20
15 0 8 -4 15 -10 15 -5 0 -12 11 -16 24 -4 17 1 31 17 47 17 17 19 24 9 27 -7
3 -21 -6 -30 -18 l-18 -23 -6 21 c-4 13 -16 22 -27 22 -19 0 -19 -1 -5 -22 22
-30 20 -44 -8 -74 -15 -17 -26 -22 -30 -15 -4 6 -23 11 -42 11 -30 0 -34 3
-34 26 0 23 3 25 37 22 22 -2 38 2 40 10 3 8 -7 12 -30 12 -26 0 -36 5 -40 19
-7 27 0 31 51 31 30 0 42 4 40 13 -5 12 -106 20 -112 8z"/>
<path d="M2437 294 c-14 -14 -7 -35 11 -32 9 2 17 10 17 17 0 16 -18 25 -28
15z"/>
<path d="M2708 289 c-6 -4 -8 -13 -6 -20 3 -8 -1 -36 -8 -64 -23 -84 -22 -85
46 -85 48 0 60 3 60 16 0 13 -8 15 -40 12 -38 -3 -40 -2 -40 24 0 25 3 28 35
28 19 0 35 5 35 10 0 6 -13 10 -29 10 -20 0 -30 6 -34 19 -7 27 0 31 51 31 30
0 42 4 39 13 -4 13 -89 18 -109 6z"/>
<path d="M2846 288 c-10 -36 -27 -170 -22 -176 13 -13 25 16 34 83 6 39 12 76
13 84 5 18 -20 27 -25 9z"/>
<path d="M3188 294 c-5 -4 -8 -16 -8 -26 0 -12 -7 -18 -21 -18 -18 0 -19 -3
-9 -14 6 -8 11 -28 10 -43 -4 -60 -1 -71 25 -75 27 -6 36 16 10 26 -9 3 -13
14 -11 28 3 13 5 30 5 39 1 9 11 20 24 24 18 6 19 8 5 12 -9 2 -18 16 -20 30
-2 14 -6 21 -10 17z"/>
<path d="M3344 289 c-3 -6 -2 -15 2 -19 12 -12 38 5 30 19 -9 14 -23 14 -32 0z"/>
<path d="M3680 265 c0 -20 -5 -56 -11 -80 -12 -46 -5 -86 11 -69 4 5 13 41 18
79 6 39 12 76 13 84 2 8 -4 17 -13 19 -15 3 -18 -3 -18 -33z"/>
<path d="M3816 282 c-2 -10 -7 -37 -11 -62 -3 -25 -8 -58 -11 -73 l-6 -28 56
3 c62 3 78 23 18 23 -23 0 -37 5 -36 13 1 6 2 21 3 31 1 17 5 18 33 10 35 -10
43 -7 35 14 -3 10 -15 13 -31 10 -23 -5 -26 -2 -26 21 0 24 4 26 40 26 28 0
40 4 40 14 0 23 -98 20 -104 -2z"/>
<path d="M4227 294 c-13 -14 -7 -32 11 -30 9 2 17 9 17 16 0 15 -18 24 -28 14z"/>
<path d="M4800 279 c0 -25 33 -22 38 4 2 12 -3 17 -17 17 -15 0 -21 -6 -21
-21z"/>
<path d="M5144 287 c-3 -9 -3 -21 1 -27 3 -5 1 -10 -4 -10 -6 0 -11 -4 -11
-10 0 -19 17 -10 29 17 8 17 9 29 2 36 -7 7 -12 5 -17 -6z"/>
<path d="M2163 271 c-3 -12 -9 -21 -14 -21 -5 0 -9 -7 -9 -16 0 -8 5 -12 10
-9 13 8 12 -1 -1 -47 -11 -43 3 -68 33 -60 22 5 23 11 3 26 -22 17 -9 82 19
91 18 6 19 8 3 12 -10 2 -16 12 -15 20 4 24 -23 28 -29 4z"/>
<path d="M4178 283 c-10 -2 -18 -11 -18 -18 0 -9 -14 -15 -37 -17 -36 -3 -38
-5 -39 -36 0 -18 -7 -37 -15 -42 -24 -15 14 -44 56 -43 39 1 49 -21 15 -32
-27 -9 -60 3 -60 21 0 8 -5 14 -11 14 -6 0 -9 -10 -7 -23 2 -18 11 -23 49 -27
49 -6 69 5 69 39 0 22 -18 31 -62 31 -41 0 -31 25 12 27 39 2 52 18 46 56 -4
19 -1 27 9 27 8 0 15 7 15 15 0 8 -1 14 -2 14 -2 -1 -11 -3 -20 -6z m-24 -59
c8 -21 -1 -34 -23 -34 -25 0 -32 10 -20 31 12 23 35 25 43 3z"/>
<path d="M5083 270 c-10 -11 -30 -20 -46 -20 -31 0 -35 -6 -41 -70 -2 -25 -7
-53 -11 -62 -9 -23 -1 -34 31 -42 40 -10 84 11 84 40 0 13 -6 25 -12 25 -80 7
-89 12 -65 36 9 10 17 12 17 6 0 -6 8 -10 18 -8 9 2 23 4 31 4 10 1 12 11 8
42 -4 32 -2 39 9 35 8 -3 14 1 14 9 0 24 -19 27 -37 5z m-5 -59 c-4 -19 -27
-25 -47 -12 -12 8 -12 12 -2 24 15 19 53 10 49 -12z m-3 -101 c0 -17 -43 -25
-64 -11 -22 14 -3 31 32 28 20 -2 32 -8 32 -17z"/>
<path d="M1441 264 c0 -11 3 -14 6 -6 3 7 2 16 -1 19 -3 4 -6 -2 -5 -13z"/>
<path d="M884 259 c-8 -14 11 -33 25 -25 11 7 4 36 -9 36 -5 0 -12 -5 -16 -11z"/>
<path d="M1056 225 c-34 -52 -13 -105 43 -105 48 0 78 72 47 113 -20 26 -70
22 -90 -8z m67 -7 c2 -7 2 -28 -1 -46 -3 -27 -8 -32 -26 -30 -23 3 -31 27 -22
64 7 26 40 34 49 12z"/>
<path d="M1190 195 c-14 -67 -8 -79 36 -72 21 4 37 1 41 -6 4 -7 11 4 15 28 4
22 11 55 14 73 5 25 3 32 -10 32 -9 0 -16 -7 -16 -16 0 -41 -24 -94 -42 -94
-16 0 -17 6 -12 43 3 23 7 48 10 55 2 6 -3 12 -11 12 -8 0 -18 -20 -25 -55z"/>
<path d="M1332 199 c-15 -65 -15 -92 1 -87 6 3 17 26 22 53 8 35 17 50 33 56
12 5 22 13 22 19 0 14 -37 13 -43 -2 -4 -10 -6 -10 -6 0 -2 29 -19 8 -29 -39z"/>
<path d="M1759 241 c-1 -6 -2 -14 -3 -18 -2 -5 -6 -30 -11 -58 -4 -27 -11 -57
-16 -67 -6 -11 -4 -18 7 -22 23 -9 24 -8 24 23 0 28 1 29 39 24 39 -5 40 -5
51 34 18 58 11 87 -22 91 -20 2 -28 -1 -28 -12 0 -10 6 -13 15 -10 11 5 15 -1
15 -17 0 -48 -12 -70 -34 -67 -17 2 -20 9 -18 33 2 17 4 39 5 49 1 10 -4 21
-10 23 -7 3 -14 0 -14 -6z"/>
<path d="M1892 225 c-31 -67 1 -123 59 -103 16 5 32 14 35 20 11 17 -6 22 -32
7 -23 -12 -27 -12 -41 6 -13 19 -12 20 37 23 53 3 56 6 40 46 -8 22 -16 26
-48 26 -32 0 -41 -5 -50 -25z m75 -11 c2 -7 -10 -14 -27 -16 -16 -3 -30 -3
-30 -2 0 1 3 10 6 19 7 18 45 17 51 -1z"/>
<path d="M2032 235 c-18 -22 -26 -70 -13 -93 10 -20 61 -37 61 -21 0 5 7 9 15
9 8 0 15 9 15 20 0 24 -16 26 -28 3 -16 -28 -44 -8 -40 28 4 40 34 62 49 37
14 -25 31 -22 27 5 -2 17 -10 23 -38 24 -21 2 -40 -3 -48 -12z"/>
<path d="M2234 224 c-7 -28 14 -54 43 -54 7 0 13 -7 13 -15 0 -9 -9 -15 -25
-15 -14 0 -25 5 -25 10 0 6 -7 10 -15 10 -18 0 -19 -12 -3 -28 16 -16 70 -16
86 0 25 25 1 67 -40 68 -10 0 -18 7 -18 16 0 13 7 15 36 11 25 -4 34 -2 31 6
-2 7 -20 13 -40 15 -32 3 -37 0 -43 -24z"/>
<path d="M2418 190 c-12 -48 -12 -62 -2 -71 16 -13 20 -5 29 51 3 25 9 53 11
63 3 10 0 17 -9 17 -9 0 -19 -22 -29 -60z"/>
<path d="M2490 191 c-12 -58 -8 -87 11 -76 5 4 9 20 9 36 0 17 4 39 10 49 10
19 4 50 -10 50 -4 0 -13 -27 -20 -59z"/>
<path d="M2540 241 c0 -5 6 -11 14 -14 11 -5 13 -19 9 -64 -4 -46 -3 -56 7
-46 15 14 32 97 24 118 -6 16 -54 21 -54 6z"/>
<path d="M2911 236 c-19 -22 -25 -84 -11 -101 16 -19 60 -19 86 -1 24 18 10
34 -16 18 -29 -18 -47 -15 -53 8 -5 18 0 20 37 20 53 0 57 4 44 41 -8 24 -16
29 -43 29 -18 0 -38 -6 -44 -14z m49 -34 c-40 -4 -51 5 -26 24 17 12 22 12 39
-4 19 -17 19 -17 -13 -20z"/>
<path d="M3036 225 c-31 -48 1 -123 46 -106 26 9 46 37 34 48 -4 4 -14 0 -21
-11 -17 -23 -45 -14 -45 14 0 48 40 80 54 43 5 -12 10 -13 18 -5 17 17 -8 42
-42 42 -19 0 -33 -8 -44 -25z"/>
<path d="M3244 233 c0 -10 -4 -39 -8 -65 -5 -39 -4 -48 9 -48 8 0 15 8 15 19
0 10 3 39 6 65 5 36 4 46 -7 46 -8 0 -15 -8 -15 -17z"/>
<path d="M3285 239 c-4 -6 -4 -13 -1 -16 8 -8 36 5 36 17 0 13 -27 13 -35 -1z"/>
<path d="M3330 195 c-14 -68 -14 -69 3 -73 10 -2 17 11 21 45 4 26 9 56 12 66
3 11 0 17 -10 17 -10 0 -18 -18 -26 -55z"/>
<path d="M3412 238 c-14 -19 -21 -80 -10 -100 16 -31 88 -20 88 13 0 23 -16
25 -28 2 -16 -28 -44 -8 -40 28 4 43 32 61 52 34 17 -24 30 -15 21 14 -5 16
-15 21 -39 21 -19 0 -38 -6 -44 -12z"/>
<path d="M3543 243 c-27 -10 -12 -24 21 -18 40 8 47 0 39 -48 -5 -33 -9 -37
-34 -37 -42 0 -36 25 11 47 l25 12 -23 0 c-39 1 -62 -17 -62 -50 0 -30 0 -30
53 -27 l52 3 6 45 c8 59 -3 80 -44 79 -18 0 -38 -3 -44 -6z"/>
<path d="M3942 215 c-2 -20 -7 -47 -12 -61 -13 -33 -13 -34 9 -34 14 0 20 10
25 43 4 23 9 52 13 65 4 17 1 22 -14 22 -15 0 -19 -8 -21 -35z"/>
<path d="M3990 235 c0 -9 6 -12 17 -8 14 5 15 1 11 -33 -4 -21 -9 -47 -13 -56
-5 -14 -2 -18 13 -18 17 0 21 8 24 55 1 30 2 60 0 65 -6 16 -52 12 -52 -5z"/>
<path d="M4211 200 c-14 -67 -14 -80 3 -80 10 0 17 16 21 48 4 26 9 55 12 65
3 10 -1 17 -10 17 -10 0 -19 -17 -26 -50z"/>
<path d="M4276 188 c-3 -33 -3 -64 0 -69 11 -18 24 2 24 36 0 19 5 37 10 40 6
4 8 15 5 25 -5 14 -1 16 21 12 24 -4 26 -8 20 -42 -3 -21 -9 -45 -12 -54 -4
-11 0 -16 14 -16 17 0 21 8 24 48 7 75 3 81 -52 80 l-47 0 -7 -60z"/>
<path d="M4430 228 c-36 -38 -20 -108 25 -108 34 0 55 10 55 26 0 16 -16 19
-25 4 -11 -17 -42 -11 -48 10 -5 18 0 20 45 20 42 0 49 3 44 16 -3 9 -6 24 -6
35 0 28 -62 26 -90 -3z m54 6 c28 -11 18 -34 -14 -34 -32 0 -37 9 -18 28 14
14 12 14 32 6z"/>
<path d="M4573 242 c-17 -11 -26 -77 -14 -101 16 -28 71 -29 89 -1 14 23 2 26
-27 8 -15 -9 -23 -9 -36 2 -25 21 -13 33 36 34 24 1 43 4 42 9 -2 4 -3 18 -3
32 0 22 -4 25 -37 25 -21 0 -43 -4 -50 -8z m67 -28 c0 -9 -11 -14 -30 -14 -34
0 -38 7 -13 25 20 15 43 9 43 -11z"/>
<path d="M4701 208 c-1 -22 -6 -49 -11 -59 -14 -25 -13 -29 10 -29 16 0 20 7
20 33 1 35 15 60 43 70 9 3 17 11 17 17 0 14 -27 13 -33 -2 -4 -10 -6 -10 -6
0 -1 6 -9 12 -19 12 -14 0 -19 -9 -21 -42z"/>
<path d="M4791 200 c-14 -66 -14 -80 3 -80 8 0 16 15 20 38 15 94 -4 130 -23
42z"/>
<path d="M4859 210 c-2 -48 -2 -52 -12 -66 -4 -7 0 -17 7 -23 19 -16 22 -8 31
67 6 53 5 62 -9 62 -12 0 -16 -11 -17 -40z"/>
<path d="M4907 243 c-14 -14 -6 -24 14 -18 21 7 22 5 15 -33 -3 -22 -9 -47
-12 -56 -4 -11 0 -16 14 -16 16 0 20 9 25 53 3 28 0 58 -5 65 -11 13 -40 16
-51 5z"/>
<path d="M5155 200 c3 -5 8 -10 11 -10 2 0 4 5 4 10 0 6 -5 10 -11 10 -5 0 -7
-4 -4 -10z"/>
<path d="M2641 184 c0 -11 3 -14 6 -6 3 7 2 16 -1 19 -3 4 -6 -2 -5 -13z"/>
<path d="M4395 109 c-4 -6 -5 -12 -2 -15 2 -3 7 2 10 11 7 17 1 20 -8 4z"/>
<path d="M4543 105 c-9 -10 -6 -12 14 -12 14 0 21 2 17 6 -5 3 -11 9 -14 13
-3 3 -10 0 -17 -7z"/>
<path d="M1360 100 c0 -5 5 -10 11 -10 5 0 7 5 4 10 -3 6 -8 10 -11 10 -2 0
-4 -4 -4 -10z"/>
<path d="M2650 100 c0 -5 5 -10 11 -10 5 0 7 5 4 10 -3 6 -8 10 -11 10 -2 0
-4 -4 -4 -10z"/>
<path d="M4660 100 c0 -5 5 -10 11 -10 5 0 7 5 4 10 -3 6 -8 10 -11 10 -2 0
-4 -4 -4 -10z"/>
<path d="M1868 93 c7 -3 16 -2 19 1 4 3 -2 6 -13 5 -11 0 -14 -3 -6 -6z"/>
<path d="M2018 93 c7 -3 16 -2 19 1 4 3 -2 6 -13 5 -11 0 -14 -3 -6 -6z"/>
<path d="M2788 93 c7 -3 16 -2 19 1 4 3 -2 6 -13 5 -11 0 -14 -3 -6 -6z"/>
</g>
</svg>
